<?xml version="1.0" standalone="no"?>
<!DOCTYPE svg PUBLIC "-//W3C//DTD SVG 20010904//EN"
 "http://www.w3.org/TR/2001/REC-SVG-20010904/DTD/svg10.dtd">
<svg version="1.0" xmlns="http://www.w3.org/2000/svg"
 width="460.000000pt" height="460.000000pt" viewBox="0 0 460.000000 460.000000"
 preserveAspectRatio="xMidYMid meet">

<g transform="translate(0.000000,460.000000) scale(0.100000,-0.100000)"
fill="#000000" stroke="none">
<path d="M0 2300 l0 -2300 2300 0 2300 0 0 2300 0 2300 -2300 0 -2300 0 0
-2300z m3729 1855 c202 -48 378 -224 426 -426 22 -96 22 -2762 0 -2858 -48
-202 -224 -378 -426 -426 -96 -22 -2762 -22 -2858 0 -202 48 -378 224 -426
426 -22 96 -22 2762 0 2858 47 199 224 377 421 425 91 22 2770 23 2863 1z"/>
<path d="M777 3823 c-4 -3 -7 -246 -7 -540 l0 -533 540 0 540 0 0 540 0 540
-533 0 c-294 0 -537 -3 -540 -7z m893 -533 l0 -360 -360 0 -360 0 0 353 c0
195 3 357 7 360 3 4 165 7 360 7 l353 0 0 -360z"/>
<path d="M1100 3285 l0 -215 215 0 215 0 0 215 0 215 -215 0 -215 0 0 -215z"/>
<path d="M2210 3740 l0 -90 -90 0 -90 0 0 -180 0 -180 90 0 90 0 0 -90 0 -90
-90 0 -90 0 0 -90 0 -90 90 0 90 0 0 -90 0 -90 -90 0 -90 0 0 -90 0 -90 -180
0 -180 0 0 -90 0 -90 90 0 90 0 0 -90 0 -90 -180 0 -180 0 0 180 0 180 -180 0
-180 0 0 -90 0 -90 -90 0 -90 0 0 90 0 91 -87 -3 -88 -3 0 -265 0 -265 88 -3
87 -3 0 91 0 90 90 0 90 0 0 -90 0 -90 90 0 90 0 0 90 0 90 90 0 90 0 0 -90 0
-90 180 0 180 0 0 90 0 90 90 0 90 0 0 -270 0 -270 90 0 90 0 0 -90 0 -90 -90
0 -90 0 0 -180 0 -180 90 0 90 0 0 -90 0 -90 -90 0 -90 0 0 -90 0 -90 180 0
180 0 0 180 0 180 90 0 90 0 0 -180 0 -180 178 2 177 3 3 88 3 87 179 0 180 0
0 -90 0 -90 268 2 267 3 3 357 2 358 -90 0 -90 0 0 90 0 89 88 3 87 3 3 88 3
87 -91 0 -90 0 0 -90 0 -90 -180 0 -180 0 0 90 0 90 90 0 90 0 0 90 0 90 178
2 177 3 3 178 2 177 -90 0 -90 0 0 90 0 90 -90 0 -90 0 0 -90 0 -90 -90 0 -90
0 0 90 0 90 -180 0 -180 0 0 -90 0 -90 -90 0 -90 0 0 90 0 90 -90 0 -90 0 0
270 0 270 -90 0 -90 0 0 90 0 90 90 0 90 0 0 90 0 90 -90 0 -90 0 0 -90 0 -90
-90 0 -90 0 0 180 0 180 180 0 180 0 0 90 0 90 -180 0 -180 0 0 -90z m180
-720 l0 -90 -90 0 -90 0 0 90 0 90 90 0 90 0 0 -90z m0 -360 l0 -90 90 0 90 0
0 -90 0 -90 90 0 90 0 0 -180 0 -180 90 0 90 0 0 180 0 180 90 0 90 0 0 -90 0
-90 90 0 90 0 0 -180 0 -180 -90 0 -90 0 0 -90 0 -90 90 0 90 0 0 -90 0 -90
90 0 90 0 0 -90 0 -90 90 0 91 0 -3 -87 -3 -88 -87 -3 -87 -3 -3 -87 -3 -87
-87 -3 -88 -3 0 271 0 270 -90 0 -90 0 -2 -177 -3 -178 -87 -3 -88 -3 0 -89 0
-90 -90 0 -90 0 0 180 0 180 -180 0 -180 0 0 -90 0 -90 -90 0 -90 0 0 180 0
180 90 0 90 0 0 90 0 90 90 0 90 0 0 90 0 90 -180 0 -180 0 0 90 0 90 180 0
180 0 0 90 0 90 -90 0 -90 0 0 90 0 90 -90 0 -90 0 0 -90 0 -90 -90 0 -90 0 0
90 0 90 90 0 90 0 0 180 0 180 90 0 90 0 0 -90z m-1080 -360 l0 -90 -90 0 -90
0 0 90 0 90 90 0 90 0 0 -90z m2340 0 l0 -90 -90 0 -90 0 0 90 0 90 90 0 90 0
0 -90z"/>
<path d="M2930 1940 l0 -90 -90 0 -90 0 0 -90 0 -90 -90 0 -90 0 0 -90 0 -90
90 0 90 0 0 -90 0 -90 90 0 90 0 0 90 0 90 -90 0 -90 0 0 90 0 90 90 0 90 0 0
90 0 90 90 0 90 0 0 90 0 90 -90 0 -90 0 0 -90z"/>
<path d="M2750 3290 l0 -540 540 0 540 0 -2 538 -3 537 -537 3 -538 2 0 -540z
m898 -2 l2 -358 -360 0 -360 0 0 360 0 360 358 -2 357 -3 3 -357z"/>
<path d="M3070 3285 l0 -215 215 0 215 0 0 215 0 215 -215 0 -215 0 0 -215z"/>
<path d="M772 1313 l3 -538 538 -3 537 -2 0 540 0 540 -540 0 -540 0 2 -537z
m898 -3 l0 -360 -357 2 -358 3 -3 358 -2 357 360 0 360 0 0 -360z"/>
<path d="M1100 1315 l0 -215 215 0 215 0 0 215 0 215 -215 0 -215 0 0 -215z"/>
</g>
</svg>
