<svg xmlns="http://www.w3.org/2000/svg" version="1.0" width="1246.000000pt" height="1240.000000pt" viewBox="0 0 1246.000000 1240.000000" preserveAspectRatio="xMidYMid meet">

<g transform="translate(0.000000,1240.000000) scale(0.100000,-0.100000)" fill="#0c7ced" stroke="none">
<path d="M307 12215 l-37 -43 2 -1154 3 -1153 195 0 195 0 3 960 2 959 37 38 37 38 955 2 956 3 0 195 0 195 -1155 2 -1155 2 -38 -44z" fill="#0c7ced"/>
<path d="M9854 12247 c-2 -7 -3 -96 -2 -197 l3 -185 957 -5 957 -5 35 -32 36 -31 0 -961 0 -961 23 -5 c12 -3 103 -4 202 -3 l180 3 3 1153 2 1152 -47 45 -48 45 -1148 0 c-924 0 -1149 -2 -1153 -13z" fill="#0c7ced"/>
<path d="M277 2654 c-4 -4 -7 -526 -7 -1159 l0 -1152 45 -42 45 -41 1152 2 1153 3 0 195 0 195 -962 5 -962 5 -35 34 -36 35 -2 960 -3 961 -191 3 c-104 1 -193 -1 -197 -4z" fill="#0c7ced"/>
<path d="M11857 2654 c-4 -4 -7 -434 -7 -956 l0 -948 -41 -45 -41 -45 -957 -2 -956 -3 0 -195 0 -195 1150 -3 1151 -2 44 45 45 46 0 1152 0 1152 -191 3 c-104 1 -193 -1 -197 -4z" fill="#0c7ced"/>
</g>
</svg>